<?xml version="1.0" standalone="no"?>
<!DOCTYPE svg PUBLIC "-//W3C//DTD SVG 20010904//EN"
 "http://www.w3.org/TR/2001/REC-SVG-20010904/DTD/svg10.dtd">
<svg version="1.0" xmlns="http://www.w3.org/2000/svg"
 width="424.000000pt" height="424.000000pt" viewBox="0 0 424.000000 424.000000"
 preserveAspectRatio="xMidYMid meet">
<metadata>
Created by potrace 1.14, written by Peter Selinger 2001-2017
</metadata>
<g transform="translate(0.000000,424.000000) scale(0.100000,-0.100000)"
fill="#000000" stroke="none">
<path d="M2240 2790 c0 -5 21 -10 47 -10 55 0 54 5 -4 14 -27 4 -43 2 -43 -4z"/>
<path d="M2370 2790 c0 -5 7 -7 15 -4 8 4 15 8 15 10 0 2 -7 4 -15 4 -8 0 -15
-4 -15 -10z"/>
<path d="M2153 2783 c-7 -2 -13 -11 -13 -19 0 -17 -17 -19 -22 -3 -4 13 -78
-9 -78 -23 0 -4 -13 -6 -29 -5 -16 1 -27 5 -24 10 6 9 6 9 -51 -8 -26 -8 -52
-12 -57 -9 -12 7 -69 -24 -69 -39 -1 -6 -14 -27 -29 -45 l-29 -34 -19 21 c-19
20 -20 20 -35 4 -26 -30 -30 -67 -10 -89 15 -16 42 -75 42 -92 0 -2 -18 -2
-40 1 -22 3 -40 4 -40 3 0 -10 40 -46 49 -46 29 0 2 -35 -48 -61 -70 -38 -80
-53 -81 -117 0 -52 -23 -112 -43 -112 -5 0 -6 -9 -2 -20 3 -11 3 -25 -1 -31
-32 -52 30 -417 93 -557 l20 -42 8 157 c5 87 9 235 10 328 2 169 2 170 38 268
20 53 45 114 56 135 26 50 106 123 161 146 25 10 60 25 79 33 21 10 48 13 75
9 22 -3 64 -9 91 -12 28 -3 65 -12 84 -20 19 -8 36 -13 38 -11 8 9 -10 35 -30
45 -19 9 -15 11 28 11 28 1 74 4 104 8 48 5 54 4 48 -10 -4 -10 -3 -17 1 -18
4 0 32 -2 62 -3 90 -4 176 -62 258 -176 74 -102 79 -112 90 -194 11 -80 32
-131 130 -311 45 -83 93 -204 106 -265 3 -14 21 -43 41 -64 19 -21 35 -44 36
-50 0 -6 4 -2 8 9 4 11 4 35 -2 55 -5 19 -11 54 -14 78 -5 42 -5 42 21 32 18
-6 26 -6 26 1 0 6 4 8 9 5 15 -9 20 19 11 58 -5 21 -4 51 1 69 12 43 11 192
-2 302 -13 110 -42 204 -75 242 -13 15 -24 34 -24 41 0 21 -27 68 -60 103 -16
19 -30 36 -30 39 0 12 -86 77 -110 84 l-25 7 22 -18 c29 -23 69 -95 49 -87 -8
3 -17 12 -20 20 -3 8 -12 14 -19 14 -8 0 -20 7 -27 15 -7 9 -35 28 -61 43 -27
15 -49 33 -49 40 0 6 -7 12 -15 12 -14 0 -19 11 -16 36 1 6 -16 15 -36 20 -42
12 -47 7 42 44 l30 13 -25 8 c-40 12 -70 10 -68 -3 2 -8 -9 -14 -27 -16 -23
-2 -27 0 -15 7 20 14 10 14 -95 -5 -67 -12 -99 -13 -130 -5 -22 6 -72 13 -112
17 -48 4 -73 11 -77 20 -5 14 -57 18 -83 7z m44 -9 c-3 -3 -12 -4 -19 -1 -8 3
-5 6 6 6 11 1 17 -2 13 -5z m-87 -34 c0 -5 -6 -10 -14 -10 -8 0 -18 5 -21 10
-3 6 3 10 14 10 12 0 21 -4 21 -10z"/>
<path d="M2398 2773 c7 -3 16 -2 19 1 4 3 -2 6 -13 5 -11 0 -14 -3 -6 -6z"/>
<path d="M2368 2533 c6 -2 18 -2 25 0 6 3 1 5 -13 5 -14 0 -19 -2 -12 -5z"/>
<path d="M2456 2103 c-65 -5 -135 -53 -151 -103 -3 -11 -11 -20 -16 -20 -12 0
-12 -92 1 -124 7 -20 16 -26 40 -26 20 0 30 -5 30 -15 0 -9 9 -15 25 -15 16 0
25 -6 25 -15 0 -8 5 -15 10 -15 6 0 29 -9 53 -19 59 -27 116 -34 170 -20 48
12 64 29 27 29 -35 0 -22 28 18 39 20 6 43 11 50 11 28 0 4 25 -51 53 -42 21
-78 30 -132 34 -104 8 -99 33 7 33 56 0 58 7 6 21 -32 8 -31 8 8 5 44 -4 114
-33 114 -47 0 -15 42 -59 52 -53 13 8 9 44 -6 50 -8 3 -12 12 -10 19 4 8 -7
20 -26 30 -17 9 -28 20 -25 25 4 6 1 10 -4 10 -6 0 -11 7 -11 15 0 8 5 15 10
15 6 0 10 -4 10 -10 0 -5 7 -10 15 -10 22 0 18 20 -10 46 -23 21 -149 67 -171
62 -5 -1 -31 -3 -58 -5z m54 -267 c0 -8 7 -22 16 -31 21 -21 14 -27 -22 -19
-25 5 -30 10 -28 32 2 33 1 32 19 32 8 0 15 -6 15 -14z m83 -53 c-7 -2 -19 -2
-25 0 -7 3 -2 5 12 5 14 0 19 -2 13 -5z"/>
<path d="M1820 1969 c-62 -34 -80 -48 -80 -60 0 -5 7 -9 16 -9 8 0 13 3 11 8
-3 4 16 8 42 10 25 1 41 -1 34 -6 -19 -12 2 -36 27 -29 16 4 20 2 16 -9 -3 -9
1 -14 13 -14 10 0 24 -6 30 -14 10 -11 2 -16 -39 -26 -32 -8 -64 -24 -85 -45
-37 -34 -47 -62 -19 -51 9 3 20 6 25 6 5 0 9 5 9 11 0 6 7 17 15 25 12 13 16
11 31 -11 17 -27 24 -27 87 -9 24 8 21 -13 -4 -21 -15 -5 -17 -10 -10 -19 6
-7 8 -16 4 -19 -3 -4 -3 -7 1 -7 10 0 66 59 66 70 0 5 10 10 21 12 14 2 25 15
33 38 7 19 18 34 24 32 10 -2 10 3 2 18 -6 11 -17 20 -25 20 -8 0 -19 9 -25
19 -8 15 -7 22 6 29 13 7 8 15 -25 45 -37 33 -47 37 -94 36 -38 -1 -67 -9
-107 -30z"/>
<path d="M1845 1710 c-4 -6 8 -10 29 -10 20 0 36 5 36 10 0 6 -13 10 -29 10
-17 0 -33 -4 -36 -10z"/>
<path d="M2267 1502 c-10 -10 -17 -24 -17 -30 0 -7 -4 -12 -10 -12 -5 0 -8
-14 -6 -31 3 -29 2 -31 -24 -26 -15 3 -33 1 -40 -6 -10 -9 -11 -9 -5 2 6 11 4
13 -8 8 -24 -9 -21 9 4 27 27 18 19 43 -16 52 -54 14 -72 -21 -35 -69 11 -14
20 -31 20 -37 0 -7 7 -10 15 -7 11 5 12 1 5 -19 -9 -22 -8 -24 9 -14 28 14 31
13 31 -14 0 -22 4 -24 45 -24 25 0 48 4 51 9 4 6 12 5 22 -4 22 -18 104 -39
115 -28 11 11 -3 41 -19 41 -8 0 -14 9 -14 19 0 11 -4 22 -9 25 -5 3 -11 15
-14 26 -4 16 1 23 19 30 13 5 24 15 24 22 -1 23 -38 59 -72 69 -45 13 -52 12
-71 -9z m62 -51 c7 -5 10 -14 7 -20 -11 -17 -24 -13 -36 9 -12 22 3 27 29 11z"/>
<path d="M803 1310 c-31 -25 -31 -60 1 -60 19 0 25 6 29 33 6 42 -3 50 -30 27z"/>
<path d="M2106 1315 c-19 -15 -19 -15 2 -15 13 0 22 6 22 15 0 18 0 18 -24 0z"/>
<path d="M3096 1241 c-3 -4 1 -57 9 -117 8 -60 15 -135 15 -166 0 -32 5 -58
10 -58 6 0 10 13 10 30 0 16 6 33 14 37 12 7 12 22 0 103 -8 52 -11 112 -8
134 4 25 3 36 -4 32 -6 -3 -13 -2 -17 4 -8 12 -22 13 -29 1z"/>
<path d="M2476 1224 c-5 -14 -16 -16 -69 -9 -102 12 -240 6 -308 -15 -43 -12
-50 -12 -88 7 -23 11 -43 17 -46 13 -3 -5 1 -11 7 -13 10 -4 10 -6 1 -6 -21
-1 -15 -17 11 -29 24 -11 64 -5 119 17 35 14 226 15 261 1 14 -5 55 -12 91
-16 53 -5 69 -3 92 11 l27 18 -23 18 c-29 23 -67 25 -75 3z"/>
<path d="M810 1180 c0 -5 -6 -8 -12 -6 -7 1 -10 1 -5 -1 13 -8 8 -21 -11 -25
-29 -8 -25 -47 6 -60 22 -9 23 -12 10 -15 -21 -5 -23 -19 -6 -29 8 -5 6 -10
-8 -15 -17 -7 -17 -8 -1 -8 23 -1 22 -8 -9 -49 -22 -28 -24 -36 -13 -43 12 -8
11 -11 -3 -20 -26 -15 -22 -29 7 -29 14 0 25 -4 25 -8 0 -14 -35 -42 -51 -42
-8 0 -23 -6 -34 -13 -30 -21 -250 -21 -281 -1 -22 15 -64 12 -64 -4 0 -4 -17
-8 -38 -8 -27 -1 -39 3 -39 12 0 8 4 14 9 14 5 0 8 10 6 23 -2 14 -9 21 -21
21 -14 -2 -17 6 -17 42 0 40 -2 44 -25 44 -32 0 -57 -38 -60 -93 -3 -61 -12
-77 -46 -77 -34 0 -39 22 -12 52 30 33 2 43 -53 19 -37 -17 -49 -19 -56 -9 -5
8 -8 1 -8 -19 0 -44 33 -76 85 -82 52 -6 128 -4 188 4 36 6 53 3 74 -10 22
-15 44 -17 150 -13 74 3 126 1 130 -5 3 -5 26 -7 53 -3 25 3 50 3 54 -1 10
-11 236 -20 316 -13 14 1 68 -5 120 -14 102 -17 261 -21 288 -8 10 5 70 3 137
-4 206 -21 238 -23 258 -12 14 7 26 7 42 -2 33 -18 69 -9 73 18 5 32 24 27 50
-16 13 -20 42 -52 65 -70 34 -28 41 -40 42 -70 0 -34 5 -39 45 -58 25 -11 71
-26 103 -33 45 -10 61 -18 69 -37 13 -28 49 -32 68 -9 7 9 19 14 25 11 7 -2
16 -1 21 3 15 14 64 22 64 11 0 -18 18 -11 23 10 3 14 14 20 31 20 14 0 26 -5
26 -11 0 -5 12 3 26 18 15 17 34 27 46 25 13 -2 21 3 25 18 3 11 18 27 34 36
16 8 29 18 29 23 0 5 9 11 21 14 12 3 18 10 15 15 -3 5 1 15 9 22 8 7 15 18
15 26 0 19 59 104 73 104 12 0 42 55 35 64 -2 2 6 13 16 25 11 12 16 24 13 27
-4 4 2 19 13 34 24 33 25 40 5 40 -10 0 -13 9 -10 30 4 36 1 37 -28 7 -35 -36
-112 -77 -147 -77 -17 0 -29 -4 -26 -9 8 -13 -16 -20 -46 -14 -15 3 -42 -4
-66 -16 -47 -24 -179 -30 -200 -9 -8 8 -15 8 -26 -1 -10 -8 -16 -9 -21 -1 -4
6 -12 7 -23 1 -15 -8 -49 3 -62 21 -3 4 -21 9 -40 10 -29 2 -35 0 -33 -15 0
-10 -2 -16 -5 -13 -3 3 -13 -1 -23 -10 -10 -9 -33 -18 -50 -20 -18 -2 -40 -11
-49 -19 -9 -8 -23 -15 -31 -15 -8 0 -23 -7 -34 -16 -12 -9 -30 -12 -47 -8 -21
4 -28 2 -28 -10 0 -20 -26 -21 -34 -1 -3 8 -12 15 -20 15 -8 0 -18 9 -21 20
-4 11 -11 18 -16 15 -5 -4 -5 -14 2 -26 6 -12 9 -22 7 -23 -22 -12 -69 -22
-73 -16 -3 5 -20 8 -38 8 -17 0 -45 0 -62 1 -25 1 -27 3 -12 12 9 5 17 15 17
21 0 15 -59 2 -82 -18 -13 -13 -28 -15 -60 -10 -24 4 -52 9 -63 10 -11 1 -27
6 -36 10 -8 4 -28 2 -42 -3 -31 -12 -60 -4 -53 14 2 7 -4 21 -15 31 -16 15
-19 15 -19 2 0 -9 -6 -18 -14 -21 -7 -3 -92 -3 -187 0 -96 3 -195 6 -221 7
-27 0 -48 5 -48 9 0 4 -9 3 -21 -3 -44 -24 -48 -10 -48 155 1 55 2 130 4 168
2 37 -1 67 -6 67 -5 0 -9 -4 -9 -10z m-740 -355 c-14 -17 -46 -20 -55 -6 -5 9
15 16 54 20 11 1 11 -2 1 -14z m697 -41 c-3 -3 -12 -4 -19 -1 -8 3 -5 6 6 6
11 1 17 -2 13 -5z"/>
<path d="M2240 1077 c-30 -15 -35 -36 -17 -61 11 -15 21 -17 54 -11 50 8 61
34 29 64 -26 24 -32 25 -66 8z"/>
<path d="M3568 943 c6 -2 18 -2 25 0 6 3 1 5 -13 5 -14 0 -19 -2 -12 -5z"/>
<path d="M1753 913 c-25 -9 -12 -23 20 -22 17 0 25 3 17 6 -8 3 -17 9 -20 13
-3 4 -11 5 -17 3z"/>
<path d="M3490 800 c-12 -8 -10 -10 8 -10 13 0 20 4 17 10 -7 12 -6 12 -25 0z"/>
<path d="M3540 800 c-9 -6 -10 -10 -3 -10 6 0 15 5 18 10 8 12 4 12 -15 0z"/>
<path d="M3215 750 c3 -6 -2 -13 -12 -17 -21 -7 -116 -85 -155 -128 -29 -31
-79 -96 -170 -220 -28 -38 -60 -92 -71 -120 -10 -27 -28 -72 -39 -100 -10 -27
-27 -66 -37 -85 -10 -19 -22 -45 -26 -58 l-7 -23 283 1 c253 1 284 3 296 18
12 16 13 16 7 0 -5 -14 -1 -18 19 -18 18 0 28 8 36 28 l11 27 -5 -27 -5 -28
434 0 c239 0 441 3 450 6 14 5 16 29 16 163 l0 157 -62 19 c-35 11 -73 20 -85
20 -11 1 -27 6 -35 12 -7 6 -29 16 -49 22 -20 7 -48 22 -63 34 -14 12 -56 33
-93 46 -37 13 -78 30 -91 38 -12 7 -28 11 -34 7 -7 -4 -8 -3 -4 5 14 22 -111
68 -214 80 -51 6 -98 15 -104 21 -7 7 -6 10 4 10 9 0 6 6 -7 15 -12 9 -39 31
-59 50 -34 33 -54 40 -96 36 -10 -1 -18 3 -18 8 0 6 -5 11 -11 11 -5 0 -7 -5
-4 -10z m625 -340 c0 -5 -12 -12 -27 -16 -51 -10 -111 -35 -123 -50 -7 -7 -16
-14 -21 -14 -18 0 -86 -54 -123 -98 -22 -26 -36 -39 -33 -29 4 9 4 17 1 17
-10 0 -41 -35 -47 -54 -5 -11 -13 -16 -23 -12 -9 3 -22 6 -29 6 -17 0 -8 42
12 53 7 5 11 12 8 17 -3 5 4 14 15 20 16 8 19 15 11 24 -13 15 -4 26 21 26 10
0 18 5 18 11 0 11 127 73 195 95 48 15 145 18 145 4z m135 -40 c-28 -12 -67
-12 -60 0 3 6 23 10 43 9 30 0 33 -2 17 -9z m-115 -30 c-14 -10 -27 -16 -30
-13 -6 6 30 33 44 33 6 0 0 -9 -14 -20z m-995 -50 c-17 -18 -17 -21 -1 -45 21
-32 62 -31 83 1 12 19 12 24 -2 37 -31 31 -11 38 22 7 17 -15 20 -26 14 -46
-15 -56 -124 -65 -151 -13 -12 21 2 64 22 72 26 11 31 7 13 -13z m485 -154 c0
-16 -28 -42 -36 -33 -7 6 18 47 28 47 5 0 8 -6 8 -14z m73 -12 c17 -6 23 -25
10 -37 -3 -4 -12 -2 -20 4 -9 9 -17 8 -27 0 -12 -10 -14 -9 -11 6 2 10 4 24 4
31 1 8 7 11 14 8 6 -3 20 -9 30 -12z m247 -34 c0 -5 -4 -10 -10 -10 -5 0 -10
5 -10 10 0 6 5 10 10 10 6 0 10 -4 10 -10z m-370 -11 c0 -5 5 -7 11 -3 7 4 10
1 7 -7 -7 -20 -32 -17 -36 4 -2 9 1 17 7 17 6 0 11 -5 11 -11z m127 -43 c-5
-14 -59 -14 -64 0 -2 6 12 10 32 10 20 0 34 -4 32 -10z"/>
<path d="M3434 696 c-9 -23 14 -46 46 -46 15 0 49 -7 76 -15 33 -10 95 -15
194 -15 80 0 151 -4 158 -9 8 -5 17 -24 21 -42 l7 -34 129 -2 c72 -1 140 -4
153 -6 21 -4 22 -1 22 54 0 32 -3 60 -7 62 -5 3 -28 8 -53 12 -39 6 -49 3 -74
-18 -30 -26 -61 -26 -69 2 -4 18 -116 48 -143 37 -9 -3 -22 -3 -28 2 -36 27
-336 46 -336 21 0 -10 -20 -8 -73 7 -10 3 -20 -1 -23 -10z m630 -137 c-8 -14
-34 -11 -34 4 0 8 3 17 7 20 9 9 34 -13 27 -24z m71 11 c3 -5 -1 -10 -9 -10
-9 0 -16 5 -16 10 0 6 4 10 9 10 6 0 13 -4 16 -10z"/>
<path d="M65 690 c-4 -7 -20 -10 -36 -8 -26 4 -29 2 -29 -24 l0 -28 78 -1 c42
-1 93 -2 112 -4 200 -14 517 -27 606 -24 92 3 116 7 133 23 13 12 28 16 43 13
49 -12 320 -24 403 -17 l30 2 -31 7 c-17 5 -91 9 -165 10 -74 1 -189 9 -257
17 -72 8 -130 10 -140 5 -39 -19 -81 -21 -91 -3 -8 15 -14 15 -42 5 -18 -7
-35 -9 -38 -4 -6 7 -84 14 -326 26 -49 3 -124 7 -167 10 -52 4 -78 3 -83 -5z
m65 -25 c0 -8 -6 -15 -14 -15 -7 0 -19 7 -26 15 -11 13 -8 15 14 15 16 0 26
-5 26 -15z"/>
<path d="M1468 613 c12 -2 30 -2 40 0 9 3 -1 5 -23 4 -22 0 -30 -2 -17 -4z"/>
<path d="M1560 610 c14 -4 48 -8 75 -8 l50 0 -40 9 c-22 4 -56 8 -75 7 -32 0
-33 -1 -10 -8z"/>
<path d="M2210 424 c0 -8 5 -12 10 -9 6 4 8 11 5 16 -9 14 -15 11 -15 -7z"/>
<path d="M2095 266 c-11 -7 -36 -18 -56 -25 -69 -22 -292 -214 -272 -234 3 -4
70 -7 149 -7 l142 0 23 38 c13 20 38 56 56 78 l34 42 -21 53 c-27 67 -31 72
-55 55z"/>
<path d="M2157 35 c-9 -19 -13 -35 -8 -35 10 0 36 58 29 65 -2 3 -12 -11 -21
-30z"/>
</g>
</svg>
